<svg width="32" height="32" viewBox="0 0 32 32" fill="none" xmlns="http://www.w3.org/2000/svg">
<rect width="32" height="32" rx="4" fill="#F8F9FA"/>
<path d="M24.3438 17.7194C24.3438 17.0771 24.6505 16.6115 25.2639 16.3225C25.8771 16.0335 26.5772 15.8793 27.3639 15.8601V15.6674C27.3639 15.372 27.2902 15.1632 27.1423 15.0412C26.9946 14.9192 26.7892 14.8582 26.5257 14.8582C26.3395 14.8582 26.1742 14.8855 26.0297 14.9401C25.8885 14.9914 25.7648 15.0525 25.6588 15.1231C25.5561 15.1905 25.4628 15.2596 25.3795 15.3302C25.2316 15.4587 25.1097 15.4651 25.0133 15.3495L24.6135 14.8582C24.5139 14.7361 24.538 14.6109 24.6859 14.4825C24.7981 14.3829 24.9282 14.2962 25.0759 14.2223C25.2269 14.1485 25.426 14.0794 25.6733 14.0152C25.9205 13.9478 26.2417 13.9141 26.6366 13.9141C27.3046 13.9141 27.8167 14.0682 28.1731 14.3765C28.5328 14.6848 28.7126 15.1391 28.7126 15.7397V18.7791C28.7126 18.9718 28.6164 19.0681 28.4237 19.0681H27.6336C27.4603 19.0681 27.3737 18.9718 27.3737 18.7791V18.6346H27.3639C27.1746 18.8176 26.9465 18.9525 26.6799 19.0392C26.4166 19.1227 26.1742 19.1644 25.9526 19.1644C25.426 19.1644 25.0262 19.036 24.7532 18.7791C24.4803 18.519 24.3438 18.1657 24.3438 17.7194ZM25.7695 17.6905C25.7695 17.8029 25.792 17.9008 25.837 17.9843C25.882 18.0646 25.9526 18.124 26.049 18.1625C26.1453 18.2011 26.2529 18.2203 26.3716 18.2203C26.5355 18.2203 26.6943 18.1979 26.8485 18.1529C27.0026 18.1079 27.1746 18.002 27.3639 17.835V16.7897C26.8244 16.8507 26.4631 16.9294 26.2803 17.0257C26.0972 17.1221 25.9655 17.2216 25.8851 17.3244C25.8081 17.4271 25.7695 17.5492 25.7695 17.6905Z" fill="#464643"/>
<path d="M19.4998 14.979C19.3072 14.979 19.2109 14.8987 19.2109 14.7382V14.2565C19.2109 14.0959 19.3072 14.0156 19.4998 14.0156H23.5268C23.7195 14.0156 23.8157 14.0959 23.8157 14.2565V14.7382C23.8157 14.8987 23.7195 14.979 23.5268 14.979H22.1877V18.7843C22.1877 18.977 22.0914 19.0733 21.8988 19.0733H21.1279C20.9352 19.0733 20.839 18.977 20.839 18.7843V14.979H19.4998Z" fill="#464643"/>
<path d="M14.2733 20.9948C14.0806 20.9948 13.9844 20.8985 13.9844 20.7058V14.2994C13.9844 14.1067 14.0806 14.0104 14.2733 14.0104H15.0344C15.195 14.0104 15.2816 14.1067 15.2945 14.2994L15.3137 14.5788H15.3331C15.4999 14.3026 15.6863 14.1228 15.8917 14.0393C16.0973 13.9558 16.3446 13.9141 16.6337 13.9141C17.3883 13.9141 17.918 14.1758 18.2232 14.6992C18.5314 15.2194 18.6856 15.8328 18.6856 16.5393C18.6856 17.2457 18.5314 17.8607 18.2232 18.3841C17.918 18.9043 17.3883 19.1644 16.6337 19.1644C16.3446 19.1644 16.0973 19.1227 15.8917 19.0392C15.6863 18.9557 15.4999 18.7759 15.3331 18.4997H15.3137C15.3266 18.6281 15.3331 18.7566 15.3331 18.8851V20.7058C15.3331 20.8985 15.2366 20.9948 15.044 20.9948H14.2733ZM15.3331 16.756C15.3331 17.1895 15.4182 17.5428 15.5883 17.8157C15.7617 18.0855 15.9688 18.2203 16.2098 18.2203C16.6432 18.2203 16.9259 18.0694 17.0575 17.7675C17.1923 17.4625 17.2598 17.053 17.2598 16.5393C17.2598 16.0255 17.1923 15.6176 17.0575 15.3158C16.9259 15.0107 16.6432 14.8582 16.2098 14.8582C15.9688 14.8582 15.7617 14.9946 15.5883 15.2676C15.4182 15.5373 15.3331 15.889 15.3331 16.3225V16.756Z" fill="#464643"/>
<path d="M4.33719 19.0711C4.1124 19.0711 4 18.9507 4 18.7099V12.525C4 12.2842 4.1124 12.1638 4.33719 12.1638H5.06934C5.29413 12.1638 5.40652 12.2842 5.40652 12.525V14.8805H6.35062C6.37632 14.2061 6.66052 13.5575 7.20321 12.9345C7.74589 12.3115 8.54712 12 9.60685 12C10.6664 12 11.4821 12.3259 12.0537 12.9778C12.6254 13.6297 12.9112 14.5096 12.9112 15.6175C12.9112 16.7253 12.6254 17.6052 12.0537 18.2571C11.4821 18.909 10.6664 19.2349 9.60685 19.2349C8.54712 19.2349 7.74429 18.9234 7.19839 18.3005C6.65568 17.6743 6.36347 16.9325 6.32173 16.0751H5.40652V18.7099C5.40652 18.9507 5.29413 19.0711 5.06934 19.0711H4.33719ZM7.80532 15.6175C7.80532 16.4203 7.94821 17.0352 8.23401 17.4623C8.52302 17.8862 8.98062 18.0981 9.60685 18.0981C10.233 18.0981 10.6889 17.8862 10.9747 17.4623C11.2638 17.0352 11.4084 16.4203 11.4084 15.6175C11.4084 14.8147 11.2638 14.2013 10.9747 13.7774C10.6889 13.3503 10.233 13.1368 9.60685 13.1368C8.98062 13.1368 8.52302 13.3503 8.23401 13.7774C7.94821 14.2013 7.80532 14.8147 7.80532 15.6175Z" fill="#464643"/>
</svg>
